<svg xmlns="http://www.w3.org/2000/svg" viewBox="0 0 573.28 648.4"><defs><style>.cls-1{fill:#fff;}</style></defs><title>Asset 4</title><g id="Layer_2" data-name="Layer 2"><g id="Layer_1-2" data-name="Layer 1"><path class="cls-1" d="M45.19,558.19c0,15.41-9.34,24.75-23.09,24.75C8.16,582.94,0,572.41,0,559c0-14.1,9-24.62,22.87-24.62C37.31,534.41,45.19,545.22,45.19,558.19Zm-34,.62c0,9.21,4.32,15.7,11.43,15.7s11.3-6.84,11.3-16c0-8.44-4-15.7-11.37-15.7C15.41,542.84,11.23,549.68,11.23,558.81Zm40.93-23.64H80.9v8.72H62.83v10.74H79.71v8.65H62.83v18.89H52.16Zm57.19,8.93H96.73v-8.93h36.13v8.93H120v38.07H109.35Zm39.82-8.93v18.07h17.51V535.17h10.59v47H166.68V562.51H149.17v19.66H138.51v-47Zm65.35,27.13h-17.3v11.16h19.32v8.71h-30v-47h29v8.72H197.22v9.77h17.3Zm34-27.13v18.07h17.51V535.17h10.59v47H266.06V562.51H248.55v19.66H237.88v-47Zm80.41,23c0,15.41-9.34,24.75-23.08,24.75-13.95,0-22.11-10.53-22.11-23.91,0-14.1,9-24.62,22.87-24.62C321.08,534.41,329,545.22,329,558.19Zm-34,.62c0,9.21,4.32,15.7,11.44,15.7s11.29-6.84,11.29-16c0-8.44-4-15.7-11.37-15.7S295,549.68,295,558.81Zm80.68,5.38c-.2-5.65-.41-12.49-.41-19.32h-.21c-1.47,6-3.42,12.69-5.23,18.2l-5.72,18.34h-8.3l-5-18.13c-1.53-5.58-3.14-12.28-4.26-18.41h-.14c-.27,6.35-.48,13.6-.83,19.45l-.84,17.85h-9.83l3-47H352l4.61,15.69c1.46,5.38,2.92,11.31,4,16.81h.21c1.33-5.44,2.93-11.65,4.47-16.87l5-15.63h13.88l2.58,47H376.39Zm47.22-1.89H405.6v11.16h19.32v8.71h-30v-47h29v8.72H405.6v9.77h17.3Zm9.27-27.13h10.68v38.08h18.69v8.92H432.17Zm63.61,27.13H478.49v11.16H497.8v8.71h-30v-47h29v8.72H478.49v9.77h17.29Zm9.62,8.93a27,27,0,0,0,11.79,2.93c4.88,0,7.46-2,7.46-5.09s-2.23-4.61-7.88-6.63c-7.82-2.72-12.9-7-12.9-13.87,0-8,6.69-14.16,17.78-14.16a29,29,0,0,1,12,2.37l-2.38,8.57a22.43,22.43,0,0,0-9.83-2.23c-4.6,0-6.83,2.1-6.83,4.54,0,3,2.64,4.32,8.71,6.62,8.3,3.07,12.2,7.4,12.2,14,0,7.88-6.06,14.64-19,14.64A30.74,30.74,0,0,1,503.24,580Zm37.66,0a27,27,0,0,0,11.79,2.93c4.87,0,7.46-2,7.46-5.09s-2.24-4.61-7.88-6.63c-7.81-2.72-12.9-7-12.9-13.87,0-8,6.69-14.16,17.78-14.16a28.82,28.82,0,0,1,12,2.37l-2.37,8.57a22.39,22.39,0,0,0-9.83-2.23c-4.6,0-6.83,2.1-6.83,4.54,0,3,2.65,4.32,8.71,6.62,8.3,3.07,12.21,7.4,12.21,14,0,7.88-6.07,14.64-19,14.64A30.74,30.74,0,0,1,540.9,580ZM127.48,352.15c-14-11.11-33.58-16-64.06-16-9.81,0-29.19.77-44.42,1.8-4.39.26-10.33.78-18.85,1.29V507.89H62.39V468.37c4.13.26,7.24.26,9.55.26,48.82,0,78.52-25.05,78.52-66.37C150.46,382.62,141.68,363.77,127.48,352.15ZM93.22,400.41c-2.86,14-17.8,24-19.24,24.09s-17.15-10.43-20.43-23.83c-1.53-8,2.4-13.5,8.25-14.91,3.06-.74,7.75.68,11.44,4.51,3.15-4,7-5.3,10.47-4.73C90.14,386.6,94.24,391.89,93.22,400.41Zm352.71-287.7c5.43-2.24,9.7-6.7,13.25-11.18,8.8-11.12,14.59-36.13,2.52-48.84-7-7.36-14.35-13.34-24.56-14.3a65.91,65.91,0,0,0-12.57.28c-2.8.28-5.94,1.11-9,1.62,1.33-3.36,2.1-5.28,2.1-5.28.42-1.84,3.64-8,4.51-9.74,1.47-2.88,3.34-5.61,4.51-8.62a18,18,0,0,0,1.44-6.58,8.68,8.68,0,0,0-.65-2.89A12.49,12.49,0,0,0,420.06.43c-2.2-.68-5-.88-5.62,1.85-.26,1.11-.54,2.22-.8,3.33-.95,3.93-1.92,7.87-3.18,11.7-.59,1.87-3.35,9-5.86,15.48h-.13q1-6.88,2-13.77c.07-.47.16-.95.21-1.42,0,0,.33-3.91-4.53.15-3.29,2.65-7.16,6-8.92,9.9-1.14,2.52.39,5.86,2.69,7.36a29.75,29.75,0,0,0-4.5-1.9c-1.54-.66-3.07-1.35-4.62-2-1.32-.56-2.5-1.35-4-1.09-2.9.49-2.4,4.59-2.34,6.72.06,2.84.22,6.08,1.59,8.69A4.25,4.25,0,0,0,385,48s2.07,1.13,8.78-5.78a12.66,12.66,0,0,0,.92,4.32c.74,1.71,2.19,2.09,3.77,2.33-13.87,37.05-19.31,56.45-33.64,93.36-6.6-15.88-22.56-49.49-31-67.62-3.35-7.2-6.38-15.93-9.28-21.33-7.37-13.67,11.63-31.4.22-34.54-9-2.47-16.25,10.38-21.9,14.36-9.69-11-30.15-5.07-40.29,2.64a2.75,2.75,0,0,0-.59.83c-3.12,11.76-12.83,17.34-26.92,16.15h-.27c-13.91,2.21-6.61,31-6.57,31,2.7,8.26,24.21,9.69,39.91,9,5.18,7.19,21.9,16,13.59,29.44-.9,1.45-10.61,20.07-13.59,31.7-3.15,12.37-8,59-9.05,72.77-2.8,35.31,2.31,60.67,2.27,92.12-2.71,8.43-17.37,10-13.1,19.75H158.48V507.89H283.74L287.88,463H218.66V441.77h52.17V401H218.66V383.4h59.4V339c5.14-22.67-1.63-45,7.49-60.32C282.73,297.31,288,316.56,293,332c-4.16.42-5.14,7-5.14,7v50.4H329.2V507.89h62.25V389.34h41.33V338.46H392.61c18.62-11.93,33.55-25.69,35.61-54.48,1-14.38-1.75-33.37,15.11-49.83,4-3.92,13.42-6.08,11.86-14a5.19,5.19,0,0,0-2.05-2,3.74,3.74,0,0,0-.7-.19c-16.33-1.51-31.4,16.71-36.3,28.26-8.43,19.91.17,51.8-18.86,61.91,2.78-41.12-19.67-141-24.16-152,3-12.84,15.82-47.18,26.91-76C403.73,100.18,423.37,122,445.93,112.71ZM559.08,392c-15.24-8.31-27.13-12.34-37.2-12.34-5.68,0-9.82,3-9.82,7.05s2.07,5.79,14.47,12.35c34.35,17.88,46.75,32.49,46.75,54.9,0,32.24-29.44,54.65-71.54,54.65-23.25,0-45.46-6-69.48-18.88l5.17-51.38c18.08,14.35,36.67,22.91,50.62,22.91,6.72,0,10.59-3,10.59-8.05,0-3.78-3.87-7.56-11.62-12.1l-20.66-11.58c-17.31-9.57-26.86-24.94-26.86-42.57,0-32.48,27.37-53.64,68.95-53.64,19.89,0,37.2,4.28,60.7,15.36Z"/><path class="cls-1" d="M535.56,305.51a13.22,13.22,0,0,1,.48-3.58,13.73,13.73,0,0,1,1.36-3.22,13.45,13.45,0,0,1,2.1-2.72,13.27,13.27,0,0,1,5.93-3.46,13.29,13.29,0,0,1,7.15,0,13.7,13.7,0,0,1,3.22,1.35,13.74,13.74,0,0,1,4.83,4.83,13.7,13.7,0,0,1,1.35,3.22,13.52,13.52,0,0,1,0,7.14,13.55,13.55,0,0,1-1.35,3.2,13.87,13.87,0,0,1-2.11,2.72,13.45,13.45,0,0,1-2.72,2.1,13.73,13.73,0,0,1-3.22,1.36,13.55,13.55,0,0,1-7.15,0,13.83,13.83,0,0,1-3.21-1.36,13.56,13.56,0,0,1-6.18-8A13.25,13.25,0,0,1,535.56,305.51Zm2.46,0a11.38,11.38,0,0,0,.85,4.42,10.94,10.94,0,0,0,5.82,6,10.67,10.67,0,0,0,4.31.87,10.87,10.87,0,0,0,7.85-3.27,11.16,11.16,0,0,0,2.36-3.58,11.38,11.38,0,0,0,.85-4.42,11.72,11.72,0,0,0-1.49-5.77,10.92,10.92,0,0,0-4-4.06,10.87,10.87,0,0,0-11.2,0,11,11,0,0,0-2.21,1.76,11.26,11.26,0,0,0-2.8,5A11.8,11.8,0,0,0,538,305.51Zm8.94,2.2v5.92h-3.9V297.29h5.85a8.21,8.21,0,0,1,5,1.22,4.14,4.14,0,0,1,1.59,3.5,4.56,4.56,0,0,1-3.44,4.61,2.32,2.32,0,0,1,.69.59,7.48,7.48,0,0,1,.54.83l3.3,5.59h-3.75a1.2,1.2,0,0,1-1.15-.6l-2.62-4.79a1.5,1.5,0,0,0-.41-.39,1.35,1.35,0,0,0-.68-.14Zm0-2.79h1.62a6.47,6.47,0,0,0,1.53-.15,2,2,0,0,0,.94-.47,1.58,1.58,0,0,0,.47-.76,4.75,4.75,0,0,0,0-2,1.52,1.52,0,0,0-.41-.71,1.9,1.9,0,0,0-.84-.42,5.8,5.8,0,0,0-1.38-.14H547Z"/><rect class="cls-1" x="73" y="632.79" width="25.95" height="4.24"/><rect class="cls-1" x="474.33" y="632.79" width="25.95" height="4.24"/><path class="cls-1" d="M143.06,644.93a7.4,7.4,0,0,0,2.36-.35,5.54,5.54,0,0,0,1.82-1,4.63,4.63,0,0,0,1.19-1.44,3.84,3.84,0,0,0,.42-1.76,3.52,3.52,0,0,0-.69-2.18,6.61,6.61,0,0,0-1.81-1.61,16.39,16.39,0,0,0-2.48-1.24l-2.73-1.09a40.14,40.14,0,0,1-4.31-2,15.57,15.57,0,0,1-3.45-2.49,10.37,10.37,0,0,1-2.27-3.21,9.92,9.92,0,0,1-.82-4.17,9.3,9.3,0,0,1,.24-2,8.83,8.83,0,0,1,.78-2.09,8.32,8.32,0,0,1,1.39-1.93,8.77,8.77,0,0,1,2.12-1.61,12,12,0,0,1,2.91-1.09,16.51,16.51,0,0,1,3.78-.39,14.69,14.69,0,0,1,2,.15,17.78,17.78,0,0,1,2.15.43,14.59,14.59,0,0,1,2.08.72,9.86,9.86,0,0,1,1.79,1h0l-.17-2h3.71V624.8H150a10.25,10.25,0,0,0-2.8-6.09,7.79,7.79,0,0,0-5.52-2,6.33,6.33,0,0,0-2,.31,5.54,5.54,0,0,0-1.64.85,4.22,4.22,0,0,0-1.14,1.32,3.35,3.35,0,0,0-.42,1.65,4.26,4.26,0,0,0,.47,2,5.37,5.37,0,0,0,1.43,1.67,14,14,0,0,0,2.41,1.5c1,.48,2.12,1,3.45,1.52.8.33,1.62.69,2.48,1.08a25.9,25.9,0,0,1,2.51,1.3,20.55,20.55,0,0,1,2.31,1.59,11,11,0,0,1,1.9,2,9.27,9.27,0,0,1,1.29,2.38,8.23,8.23,0,0,1,.48,2.87,8.62,8.62,0,0,1-3.38,7,11.91,11.91,0,0,1-3.89,2,17,17,0,0,1-5.06.71,14.06,14.06,0,0,1-2-.15,16.65,16.65,0,0,1-2.14-.45,18,18,0,0,1-2.14-.73,15.5,15.5,0,0,1-2-1h0l.16,2H131V636.85h3.14a11.46,11.46,0,0,0,1.12,3.52,8.83,8.83,0,0,0,2,2.54,7.89,7.89,0,0,0,2.64,1.52A9.83,9.83,0,0,0,143.06,644.93Z"/><path class="cls-1" d="M174.46,639.75c0,.44,0,.87,0,1.29s0,.83,0,1.21,0,.73,0,1-.06.57-.09.78l3.61-.15v3.71H164.1v-3.17a13.91,13.91,0,0,0,1.44-.15,2,2,0,0,0,1.08-.51,2.77,2.77,0,0,0,.67-1.23,8.58,8.58,0,0,0,.23-2.28v-18.4c0-.43,0-.86,0-1.29s0-.82,0-1.2,0-.73.06-1,.05-.57.08-.77l-3.61.14V614h13.78v3.16a11.14,11.14,0,0,0-1.45.17,2.1,2.1,0,0,0-1.07.51,2.53,2.53,0,0,0-.66,1.22,8.49,8.49,0,0,0-.24,2.27Z"/><path class="cls-1" d="M217.07,648.1H213l-15.35-19.62c-.82-1.05-1.69-2.24-2.63-3.59h0l.07,14.86c0,.44,0,.87,0,1.29s0,.83,0,1.21,0,.73-.06,1-.05.57-.08.78l3.61-.15v3.71h-11v-3.17a13.91,13.91,0,0,0,1.44-.15,2,2,0,0,0,1.08-.51,2.77,2.77,0,0,0,.67-1.23,9,9,0,0,0,.23-2.28l-.11-18.4c0-.43,0-.86,0-1.29s0-.82,0-1.2,0-.73.06-1,.05-.57.08-.77l-3.61.14V614h7.53l14.67,18.51c.81,1,1.48,1.92,2,2.66s1,1.39,1.35,1.94H213V621.89c0-.43,0-.86,0-1.29s0-.82,0-1.2,0-.73.06-1,0-.57.09-.77l-3.61.14V614h10.92v3.16a11.31,11.31,0,0,0-1.46.17,2.07,2.07,0,0,0-1.06.51,2.62,2.62,0,0,0-.67,1.22,8.55,8.55,0,0,0-.23,2.27Z"/><path class="cls-1" d="M235.74,630.33a22.73,22.73,0,0,0,.67,5.72,14.25,14.25,0,0,0,1.94,4.49,9.28,9.28,0,0,0,3.16,2.93,8.76,8.76,0,0,0,4.31,1,11.66,11.66,0,0,0,3-.4,13.28,13.28,0,0,0,3-1.16,15.1,15.1,0,0,0,2.7-1.86,14.66,14.66,0,0,0,2.29-2.49l2.3,2.11a19.3,19.3,0,0,1-3.68,3.94,18.14,18.14,0,0,1-3.82,2.33,15.59,15.59,0,0,1-3.68,1.13,20.9,20.9,0,0,1-3.26.29,16.74,16.74,0,0,1-6.76-1.32,15.58,15.58,0,0,1-5.2-3.64,16.16,16.16,0,0,1-3.32-5.42,18.92,18.92,0,0,1-1.18-6.7,21.12,21.12,0,0,1,.47-4.38,20,20,0,0,1,1.4-4.19,17.71,17.71,0,0,1,2.33-3.74,15.66,15.66,0,0,1,3.27-3,15.5,15.5,0,0,1,4.19-2,17.38,17.38,0,0,1,5.13-.72,14,14,0,0,1,2,.15,17.11,17.11,0,0,1,2.12.45,20.65,20.65,0,0,1,2.13.74,14.7,14.7,0,0,1,2,1h0l-.16-2h3.7V624.8h-3.14a11,11,0,0,0-2.65-6,7.24,7.24,0,0,0-5.41-2,8.12,8.12,0,0,0-4.37,1.15,9.61,9.61,0,0,0-3.08,3,14.17,14.17,0,0,0-1.82,4.35A21.15,21.15,0,0,0,235.74,630.33Z"/><path class="cls-1" d="M277.1,631.88v7.89c0,.44,0,.86,0,1.28s0,.81,0,1.18,0,.72-.06,1-.05.57-.08.77l6.44,0a6.5,6.5,0,0,0,2.11-.36,4.81,4.81,0,0,0,1.88-1.16,6.11,6.11,0,0,0,1.33-2.14,9,9,0,0,0,.52-3.28h3.16l-.28,10.57H266.74v-3.14a11.35,11.35,0,0,0,1.45-.17,2.06,2.06,0,0,0,1.07-.51,2.58,2.58,0,0,0,.67-1.22,8.52,8.52,0,0,0,.24-2.28V621.9c0-.44,0-.87,0-1.29s0-.83,0-1.21,0-.73.06-1,.05-.58.08-.78l-3.61.14V614h24l.28,9.3h-3.16a7.68,7.68,0,0,0-.56-3.16,5,5,0,0,0-1.39-1.9,4.51,4.51,0,0,0-1.88-.91,7.73,7.73,0,0,0-2-.21l-1.74,0a8.56,8.56,0,0,0-1.34.15,1.91,1.91,0,0,0-1,.56,2.73,2.73,0,0,0-.63,1.24,8.67,8.67,0,0,0-.23,2.22v7.2h5.65l-.21-4.15h3.7v11.67h-3.16a6,6,0,0,0-.37-2.36,2.86,2.86,0,0,0-1-1.29,3.26,3.26,0,0,0-1.49-.51,18,18,0,0,0-1.84-.06Z"/><path class="cls-1" d="M327.72,616.67a4.63,4.63,0,0,0-2.32.59,4.47,4.47,0,0,0-1.55,1.42,3,3,0,0,1,.73,1.26,4.4,4.4,0,0,1,.21,1.23,3.15,3.15,0,0,1-.18,1,2.85,2.85,0,0,1-.56,1,3.26,3.26,0,0,1-1,.77,3.38,3.38,0,0,1-1.52.32,3.12,3.12,0,0,1-1.31-.31,2.6,2.6,0,0,1-.95-.75,3.15,3.15,0,0,1-.59-1.1,4.51,4.51,0,0,1-.2-1.33,4.55,4.55,0,0,1,.31-1.58,6.66,6.66,0,0,1,.9-1.67,8.49,8.49,0,0,1,1.49-1.59,9.87,9.87,0,0,1,2-1.36,11.3,11.3,0,0,1,2.59-.95,12.71,12.71,0,0,1,3.11-.35,16.42,16.42,0,0,1,3.86.46,10.21,10.21,0,0,1,3.47,1.55,8.32,8.32,0,0,1,2.49,2.8,8.55,8.55,0,0,1,1,4.26,7.86,7.86,0,0,1-.44,2.51,11.23,11.23,0,0,1-1.59,2.91,29.73,29.73,0,0,1-3.22,3.62c-1.38,1.35-3.15,2.9-5.32,4.67a24.62,24.62,0,0,0-2.3,2.07,22.05,22.05,0,0,0-1.62,1.86,11.32,11.32,0,0,0-1,1.56,5,5,0,0,0-.46,1.16l9.4.26h.38a6.12,6.12,0,0,0,1.33-.13,2.27,2.27,0,0,0,1-.48,2.21,2.21,0,0,0,.65-1,4.26,4.26,0,0,0,.24-1.56h3l-.37,7.81h-21a13.82,13.82,0,0,1,.66-4.44,15.5,15.5,0,0,1,1.71-3.57,19,19,0,0,1,2.4-3q1.35-1.35,2.73-2.64a34.5,34.5,0,0,0,3-3.07,19,19,0,0,0,2-2.81A11,11,0,0,0,332,625.5a9.59,9.59,0,0,0,.36-2.6,12.18,12.18,0,0,0-.21-2.26,6.22,6.22,0,0,0-.74-2,4,4,0,0,0-3.67-2Z"/><path class="cls-1" d="M349,631a23.68,23.68,0,0,1,1.48-8.18,19.72,19.72,0,0,1,1.86-3.7,13.6,13.6,0,0,1,2.6-3,11.61,11.61,0,0,1,3.35-2,10.83,10.83,0,0,1,4.09-.75,10.89,10.89,0,0,1,7.49,2.75,12.83,12.83,0,0,1,2.47,3,19.2,19.2,0,0,1,1.7,3.64,23.14,23.14,0,0,1,1,4,27.31,27.31,0,0,1,.32,4.08,25,25,0,0,1-.35,4.08,22.9,22.9,0,0,1-1.08,4,19.56,19.56,0,0,1-1.82,3.7,13.74,13.74,0,0,1-2.54,3.05,11.23,11.23,0,0,1-3.3,2,10.81,10.81,0,0,1-4.08.75,12,12,0,0,1-4.37-.74,11.21,11.21,0,0,1-3.39-2,12.11,12.11,0,0,1-2.48-3,18,18,0,0,1-1.69-3.64,21.78,21.78,0,0,1-.95-4A28.36,28.36,0,0,1,349,631Zm7.28-1c0,1.11,0,2.26.07,3.44a34.34,34.34,0,0,0,.31,3.44,22.76,22.76,0,0,0,.66,3.15,10.05,10.05,0,0,0,1.1,2.61,5.43,5.43,0,0,0,1.67,1.76,4.26,4.26,0,0,0,2.36.65,3.81,3.81,0,0,0,2.8-1.08,7.28,7.28,0,0,0,1.71-2.9,19.24,19.24,0,0,0,.86-4.23c.15-1.6.23-3.29.23-5.06,0-1.3,0-2.57-.08-3.82s-.16-2.44-.32-3.56a23.71,23.71,0,0,0-.63-3.11,9.51,9.51,0,0,0-1-2.47,5,5,0,0,0-1.56-1.6,3.92,3.92,0,0,0-2.16-.58,4,4,0,0,0-2.88,1.08,7.41,7.41,0,0,0-1.83,2.91,18.59,18.59,0,0,0-1,4.26A41.68,41.68,0,0,0,356.28,630Z"/><path class="cls-1" d="M384.31,631a24,24,0,0,1,1.49-8.18,19.68,19.68,0,0,1,1.85-3.7,13.87,13.87,0,0,1,2.6-3,11.75,11.75,0,0,1,3.35-2,10.9,10.9,0,0,1,4.09-.75,10.84,10.84,0,0,1,7.49,2.75,12.87,12.87,0,0,1,2.48,3,19.17,19.17,0,0,1,1.69,3.64,22.28,22.28,0,0,1,1,4,27.31,27.31,0,0,1,.32,4.08,24,24,0,0,1-.36,4.08,22,22,0,0,1-1.07,4,20.18,20.18,0,0,1-1.82,3.7,14,14,0,0,1-2.54,3.05,11.15,11.15,0,0,1-3.31,2,10.74,10.74,0,0,1-4.08.75,12,12,0,0,1-4.37-.74,11,11,0,0,1-3.38-2,12.37,12.37,0,0,1-2.49-3,18,18,0,0,1-1.69-3.64,23.52,23.52,0,0,1-.95-4A29.87,29.87,0,0,1,384.31,631Zm7.29-1c0,1.11,0,2.26.07,3.44a34.34,34.34,0,0,0,.31,3.44,22.77,22.77,0,0,0,.65,3.15,10.41,10.41,0,0,0,1.1,2.61,5.56,5.56,0,0,0,1.68,1.76,4.23,4.23,0,0,0,2.35.65,3.82,3.82,0,0,0,2.81-1.08,7.52,7.52,0,0,0,1.71-2.9,18.71,18.71,0,0,0,.85-4.23c.16-1.6.24-3.29.24-5.06,0-1.3,0-2.57-.09-3.82s-.16-2.44-.31-3.56a25.47,25.47,0,0,0-.63-3.11,9.52,9.52,0,0,0-1-2.47,5,5,0,0,0-1.56-1.6,3.89,3.89,0,0,0-2.15-.58,4.06,4.06,0,0,0-2.89,1.08,7.51,7.51,0,0,0-1.82,2.91,18.57,18.57,0,0,0-1,4.26A43.82,43.82,0,0,0,391.6,630Z"/><path class="cls-1" d="M441.56,621.4a5.88,5.88,0,0,1-.51,2.4,9.21,9.21,0,0,1-1.34,2.17,12.31,12.31,0,0,1-1.84,1.84,15.25,15.25,0,0,1-2,1.42v0a17.65,17.65,0,0,1,5.41,4.8,9.2,9.2,0,0,1,1.73,5.3,7.88,7.88,0,0,1-1,4,8.59,8.59,0,0,1-2.62,2.81,11.5,11.5,0,0,1-3.79,1.64,18.35,18.35,0,0,1-4.49.53,15.53,15.53,0,0,1-2.38-.19,15.14,15.14,0,0,1-2.46-.58,12.24,12.24,0,0,1-2.3-1,8.05,8.05,0,0,1-1.92-1.57,7.19,7.19,0,0,1-1.32-2.15,7.48,7.48,0,0,1-.49-2.8,7,7,0,0,1,.54-2.69,10.94,10.94,0,0,1,1.43-2.46,13.41,13.41,0,0,1,2-2.11,17.25,17.25,0,0,1,2.33-1.63v0a15.1,15.1,0,0,1-2.69-2.12,13.06,13.06,0,0,1-1.79-2.25,8.84,8.84,0,0,1-1-2.25,8.12,8.12,0,0,1-.3-2.1,8,8,0,0,1,1-4.07,9.36,9.36,0,0,1,2.59-2.86,11.38,11.38,0,0,1,3.51-1.68,13.54,13.54,0,0,1,3.77-.55,12.59,12.59,0,0,1,3.65.53,10.33,10.33,0,0,1,3.17,1.57,8.11,8.11,0,0,1,2.24,2.56A7,7,0,0,1,441.56,621.4Zm-5.46,19a6,6,0,0,0-.3-1.84,6.4,6.4,0,0,0-1-1.91,11.19,11.19,0,0,0-1.92-1.91,16.5,16.5,0,0,0-3-1.84,9.31,9.31,0,0,0-1.75,1.74,11.82,11.82,0,0,0-1.17,1.91,9.85,9.85,0,0,0-.67,1.84,6.78,6.78,0,0,0-.21,1.54,5.3,5.3,0,0,0,.4,2,4.9,4.9,0,0,0,1.1,1.61,5.11,5.11,0,0,0,1.65,1.07,5.46,5.46,0,0,0,2.08.39,5.11,5.11,0,0,0,2-.37,4.26,4.26,0,0,0,2.47-2.47A5.09,5.09,0,0,0,436.1,640.39Zm-8.64-19.32a4.5,4.5,0,0,0,.42,1.87,7.56,7.56,0,0,0,1.13,1.75,9.46,9.46,0,0,0,1.68,1.52,9.58,9.58,0,0,0,2,1.1,10.16,10.16,0,0,0,1.49-1.36,10.89,10.89,0,0,0,1.15-1.55,7.67,7.67,0,0,0,.73-1.58,4.48,4.48,0,0,0,.26-1.47,5.58,5.58,0,0,0-.34-2,4.14,4.14,0,0,0-.92-1.49,3.91,3.91,0,0,0-1.38-.91,4.66,4.66,0,0,0-1.69-.3,4.77,4.77,0,0,0-1.9.36,4.37,4.37,0,0,0-1.44,1,4.05,4.05,0,0,0-.92,1.41A4.66,4.66,0,0,0,427.46,621.07Z"/></g></g></svg>